<?xml version="1.0" standalone="no"?>
<!DOCTYPE svg PUBLIC "-//W3C//DTD SVG 20010904//EN"
 "http://www.w3.org/TR/2001/REC-SVG-20010904/DTD/svg10.dtd">
<svg version="1.0" xmlns="http://www.w3.org/2000/svg"
 width="50.000000pt" height="50.000000pt" viewBox="0 0 500.000000 500.000000"
 preserveAspectRatio="xMidYMid meet">

<g transform="translate(0.000000,500.000000) scale(0.100000,-0.100000)"
fill="#000000" stroke="none">
<path d="M2075 4741 c-11 -5 -31 -21 -45 -36 -25 -27 -25 -27 -30 -277 l-5
-250 -100 -37 c-55 -21 -129 -52 -164 -70 l-64 -33 -171 171 c-108 107 -181
172 -199 177 -74 18 -84 10 -389 -295 -304 -305 -312 -315 -293 -388 4 -18 71
-93 177 -199 l170 -171 -33 -64 c-18 -35 -49 -109 -70 -164 l-37 -100 -251 -5
-251 -5 -32 -33 -33 -32 0 -430 0 -430 33 -32 32 -33 251 -5 251 -5 37 -100
c21 -55 52 -129 70 -164 l33 -64 -171 -171 c-185 -186 -197 -204 -172 -278 8
-23 96 -118 294 -315 300 -299 310 -307 384 -289 18 5 91 70 199 177 l171 171
64 -33 c35 -18 109 -49 164 -70 l100 -37 5 -251 5 -251 33 -32 32 -33 430 0
430 0 32 33 33 32 5 251 5 251 100 37 c55 21 129 52 164 70 l64 33 162 -162
c89 -90 173 -169 186 -176 32 -17 72 -17 112 0 18 8 156 140 309 293 294 296
302 306 283 380 -4 18 -71 93 -177 199 l-170 171 33 64 c18 35 49 109 70 164
l37 100 251 5 251 5 32 33 33 32 0 430 0 430 -33 32 -32 33 -251 5 -251 5 -37
100 c-21 55 -52 129 -70 164 l-33 64 171 171 c185 185 197 204 172 277 -14 41
-551 582 -594 598 -37 14 -77 13 -106 -3 -13 -7 -97 -86 -186 -176 l-162 -162
-64 33 c-35 18 -109 49 -164 70 l-100 37 -5 251 -5 251 -33 32 -32 33 -418 2
c-229 1 -426 -2 -437 -6z m675 -460 c0 -131 4 -230 11 -249 14 -42 56 -66 159
-92 47 -12 90 -25 95 -29 6 -4 37 -18 70 -31 33 -13 100 -46 148 -73 79 -44
94 -49 134 -44 43 5 54 13 207 166 l162 162 177 -178 178 -177 -162 -162
c-153 -153 -161 -164 -166 -207 -5 -40 0 -54 41 -128 56 -100 118 -249 141
-339 21 -83 48 -125 87 -139 19 -7 118 -11 249 -11 l219 0 0 -250 0 -250 -219
0 c-131 0 -230 -4 -249 -11 -39 -14 -66 -56 -87 -139 -23 -90 -85 -239 -141
-339 -41 -74 -46 -88 -41 -128 5 -43 13 -54 166 -207 l161 -162 -177 -177
-177 -177 -162 161 c-153 153 -164 161 -207 166 -40 5 -54 0 -128 -41 -101
-57 -250 -119 -339 -142 -83 -21 -125 -47 -139 -86 -7 -19 -11 -118 -11 -249
l0 -219 -250 0 -250 0 0 219 c0 131 -4 230 -11 249 -13 39 -56 66 -138 87 -75
19 -241 84 -241 94 0 4 85 91 188 194 l189 188 94 -16 c500 -81 968 207 1122
690 44 137 59 296 36 366 -14 40 -44 76 -81 95 -33 17 -115 18 -145 1 -12 -6
-41 -23 -65 -35 -44 -25 -195 -112 -281 -163 -57 -34 -66 -35 -98 -10 -13 10
-29 20 -35 22 -6 2 -45 24 -88 48 l-77 45 3 135 3 135 53 31 c29 16 122 70
208 119 157 90 181 111 204 177 18 50 -1 116 -44 157 -65 62 -260 140 -403
161 -477 71 -945 -221 -1092 -681 -53 -166 -63 -306 -36 -478 l16 -94 -188
-188 c-103 -103 -191 -188 -194 -188 -10 0 -75 167 -94 241 -21 82 -48 125
-87 138 -19 7 -118 11 -249 11 l-219 0 0 250 0 250 219 0 c131 0 230 4 249 11
42 14 66 56 92 159 12 47 25 90 30 95 4 6 17 36 28 67 12 32 45 99 73 149 46
82 51 96 46 136 -5 43 -13 54 -166 207 l-162 162 177 178 178 177 162 -162
c153 -153 164 -161 207 -166 40 -5 55 0 134 44 48 27 115 60 148 73 33 13 65
27 70 31 6 4 48 17 95 29 103 26 145 50 159 92 7 19 11 118 11 249 l0 219 250
0 250 0 0 -219z m-121 -1041 c34 -6 77 -16 94 -23 l31 -13 -97 -55 c-251 -139
-263 -148 -276 -196 -6 -21 -8 -127 -5 -267 5 -197 8 -235 23 -255 15 -22 83
-68 181 -123 19 -10 64 -37 100 -58 102 -62 142 -80 180 -80 40 0 36 -2 228
109 79 46 146 81 148 78 9 -8 -46 -158 -79 -217 -93 -167 -240 -288 -432 -356
-74 -26 -91 -28 -225 -28 -125 0 -154 3 -210 23 -123 43 -85 71 -585 -429
l-441 -441 -177 178 -178 177 441 441 c500 500 472 462 429 585 -20 56 -23 85
-23 210 0 133 2 151 28 225 82 232 233 392 452 476 122 47 258 60 393 39z"/>
</g>
</svg>
